<?xml version="1.0" encoding="utf-8"?>
<svg version="1.1" id="Layer_1" x="0px" y="0px" width="64px" height="16px" viewBox="0 0 64 16" enable-background="new 0 0 64 16" xmlns="http://www.w3.org/2000/svg">
  <g transform="translate(0, 0)">
    <polygon points="8,12.6000004 0.3,4.9000001 1.7,3.4000001 8,9.6999998 14.3000002,3.4000001 15.6999998,4.9000001 &#10;&#9;&#9;&#9;" style="fill: rgb(255, 255, 255);"/>
  </g>
  <g transform="translate(16, 0)">
    <path d="M15,3H8.3999996L5.6999998,0.3C5.5,0.1,5.3000002,0,5,0H1C0.4,0,0,0.4,0,1v14c0,0.6000004,0.4,1,1,1h14 c0.6000004,0,1-0.3999996,1-1V4C16,3.4000001,15.6000004,3,15,3z" style="fill: rgb(255, 255, 255);"/>
  </g>
  <g transform="translate(32, 0)">
    <path d="M15.8000002,7.4000001C15.6000004,7.1999998,15.3000002,7,15,7H4 C3.5999999,7,3.2,7.1999998,3.0999999,7.5999999l-3,7.0000005C-0.1,15.1999998,0.1,16,1,16h11 c0.3999996,0,0.8000002-0.1999998,0.8999996-0.6000004l3-7C16.1000004,8.1000004,16,7.6999998,15.8000002,7.4000001z" style="fill: rgb(255, 255, 255);"/>
    <path d="M1.2,6.8000002C1.7,5.6999998,2.8,5,4,5h9V3c0-0.5999999-0.3999996-1-1-1H6.4000001L4.6999998,0.3 C4.5,0.1,4.3000002,0,4,0H1C0.4,0,0,0.4,0,1v8.6999998L1.2,6.8000002z" style="fill: rgb(255, 255, 255);"/>
  </g>
  <g transform="translate(48, 0)"/>
</svg>